<?xml version="1.0" standalone="no"?><!DOCTYPE svg PUBLIC "-//W3C//DTD SVG 1.1//EN" "http://www.w3.org/Graphics/SVG/1.1/DTD/svg11.dtd"><svg t="1678091488242" class="icon" viewBox="0 0 1024 1024" version="1.1" xmlns="http://www.w3.org/2000/svg" p-id="3888" xmlns:xlink="http://www.w3.org/1999/xlink" width="200" height="200"><path d="M691.1 179c57 15 63.9 181 63.9 181l-195-31s74.1-165 131.1-150zM295 447s-7-267 78-267 164 184 164 184l-242 83z" fill="#FFF5CC" p-id="3889"></path><path d="M524 142c115 0 191 339 192 473S567 807 524 808s-189-39-191-189 76-477 191-477z" fill="#FFFCEB" p-id="3890"></path><path d="M774 194.3c-54.7-12.2-241 386.9-266.2 490.9S511.7 819.9 537 826s200-20 253-182 38.6-437.5-16-449.7z" fill="#FFFCEB" p-id="3891"></path><path d="M275.2 180.6c55.1-9.8 223.8 397 244.5 502S505.5 801 480 806s-194.7-36.3-238.9-182.6-21.1-433 34.1-442.8z" fill="#FFFCEB" p-id="3892"></path><path d="M442.6 802.7c-9-24.5 25.3-47.7 88.4-48.2s96.6 21.4 96.6 44.5-82 117.8-135.1 137.4C439.4 956 416.3 956 390.9 956s-27.7-45 19.6-62.3c47.4-17.4 41.1-66.5 32.1-91z" fill="#2C4432" p-id="3893"></path><path d="M569.6 614.9l-19.1-5.9c0.3-0.8 25.9-83.1 78.8-177.9 52.6-94.4 96.1-156.3 96.6-156.9l16.3 11.5c-0.4 0.6-43.3 61.7-95.4 155.1-52 93.1-77 173.3-77.2 174.1z" fill="#FFF5CC" p-id="3894"></path><path d="M689.2 212.8c-3.9 0-7.7-2.3-9.3-6.2-6.2-15.1-16.7-34-31.4-37.9-14.5-3.8-35.2 10.5-58.3 40.3-3.4 4.4-9.7 5.1-14 1.8-4.4-3.4-5.1-9.7-1.8-14 29.2-37.5 55.8-53.5 79.2-47.3 18.2 4.8 33.3 21.5 44.8 49.7 2.1 5.1-0.3 11-5.5 13-1.1 0.4-2.4 0.6-3.7 0.6zM284.5 212.8c-1.3 0-2.7-0.3-4-0.9-5.1-2.2-7.3-8.1-5.1-13.2C289.6 166.4 309 150 333 150c20.9 0 42.8 9.6 65 28.6 4.2 3.6 4.7 9.9 1.1 14.1-3.6 4.2-9.9 4.7-14.1 1.1-18.5-15.8-36-23.8-52-23.8-15.3 0-28.6 12.4-39.4 36.8-1.6 3.8-5.3 6-9.1 6z" fill="#212121" p-id="3895"></path><path d="M622.7 318.2c-4.2 0-8.1-2.7-9.5-6.9-18-54.5-37.9-97.8-59.1-128.6C531 149.1 507.4 132 484 132c-23.6 0-47.3 16.6-70.5 49.2-21.3 29.9-41.8 73.5-59.4 126.1-1.8 5.2-7.4 8.1-12.7 6.3-5.2-1.8-8.1-7.4-6.3-12.7 18.5-55.2 39.4-99.4 62.1-131.4 27.2-38.3 56.4-57.7 86.8-57.7 69.8 0 119.1 105 148.2 193.1 1.7 5.2-1.1 10.9-6.4 12.6-1 0.5-2.1 0.7-3.1 0.7z" fill="#212121" p-id="3896"></path><path d="M473.8 646.9c-1.1 0-2.2-0.2-3.2-0.5-5.2-1.8-8-7.5-6.2-12.7 24.6-72.4 77.8-190.9 129.4-288.2 28.5-53.8 55.1-98.3 76.9-128.6 28.6-39.9 48.8-56 65.4-52.3 6.9 1.6 13.2 5.7 18.9 12.4 7 8.2 13 20.3 18.5 37.1 4.9 14.9 8.9 33.3 12.1 54.5 3.6 23.6 5.9 49.9 6.9 78.2 0.2 5.5-4.1 10.2-9.6 10.4-5.5 0.2-10.2-4.1-10.4-9.6-1-27.5-3.2-53.1-6.7-76-3-20.2-6.8-37.4-11.3-51.3-4.6-14-9.5-24.2-14.7-30.3-2.8-3.3-5.5-5.2-8.1-5.8-0.2 0-27.7-3.9-120.3 170.8-50.3 95-104.2 214.9-128.1 285.3-1.4 4-5.3 6.6-9.5 6.6zM594.4 796.4c-3.9 0-7.7-2.4-9.3-6.2-2.1-5.1 0.4-10.9 5.5-13 52-21.1 120.2-65.4 149.9-156.2 14.7-45 25.1-101.9 29.8-164.7 0.4-5.5 5.2-9.6 10.7-9.2 5.5 0.4 9.6 5.2 9.2 10.7-4.9 64.3-15.5 122.9-30.8 169.4-14 42.9-37.5 80.1-69.7 110.4-25.8 24.3-56.6 43.9-91.7 58.1-1.1 0.5-2.3 0.7-3.6 0.7z" fill="#212121" p-id="3897"></path><path d="M485.9 738.1h-0.1c-5.5-0.1-9.9-4.6-9.9-10.1 0.2-15.1-1.6-40.6-6.1-63.4-10.3-52.3-58-180.5-108.6-291.8-27.7-61-54-111.9-76-147.3-35.2-56.6-48.2-55-48.3-55-3.9 0.7-8.6 5.1-13.1 12.4-18.2 29.6-31.6 100.3-35 184.7-3.6 88.4 4.6 175.5 21.9 232.9 4.1 13.4 9.5 26.4 16 38.7 2.6 4.9 0.8 10.9-4.1 13.5-4.9 2.6-10.9 0.8-13.5-4.1-7.2-13.4-13.1-27.7-17.6-42.3-18.2-60.3-26.5-147.6-22.8-239.5 3.6-88.9 17.8-161.6 38-194.4 7.8-12.6 16.7-19.9 26.6-21.6 18-3.2 39.2 16.6 68.8 64.1 22.4 36.1 49.1 87.8 77.2 149.6 51.1 112.5 99.5 242.6 110.1 296.2 4.8 24.3 6.7 51.4 6.5 67.6-0.1 5.4-4.5 9.8-10 9.8zM273.3 722c-2.3 0-4.6-0.8-6.5-2.4-5.8-5-11.4-10.2-17.2-16.2-3.9-3.9-3.8-10.3 0.1-14.1s10.3-3.8 14.1 0.1c5.4 5.5 10.7 10.4 16 15 4.2 3.6 4.7 9.9 1.1 14.1-2 2.3-4.8 3.5-7.6 3.5zM399.3 789.1c-0.9 0-1.8-0.1-2.7-0.4-27.7-7.9-57.3-20.7-83.2-35.9-4.8-2.8-6.4-8.9-3.6-13.7 2.8-4.8 8.9-6.4 13.7-3.6 24.5 14.5 52.4 26.5 78.5 34 5.3 1.5 8.4 7 6.9 12.4-1.2 4.3-5.2 7.2-9.6 7.2z" fill="#212121" p-id="3898"></path><path d="M350.9 946c-14.1 0-24.8-9.3-27.3-23.6-3.4-19.1 8.8-45.4 43.5-58.1 17.5-6.4 27.6-18 30.8-35.3 3.4-18.7-2.7-37.6-4.7-42.9-3.7-10.1-2.3-20.7 4.1-29.8 13.5-19.6 48.6-31.5 93.7-31.8 57.9-0.4 83.8 16.6 94.1 26.8 8.2 8.2 12.6 17.7 12.6 27.7 0 21.9-41.9 67.9-50.3 76.8-46.7 50-79.4 65.5-91.3 69.9C401.2 946 376.8 946 350.9 946zM493 744.5h-1.9c-45.5 0.4-70.1 12.7-77.4 23.2-2.7 3.8-3.2 7.5-1.7 11.5 3.1 8.4 9.8 30.4 5.5 53.4-4.4 24.1-19.5 41.6-43.6 50.4-25.5 9.3-32.3 26.5-30.7 35.8 0.8 4.7 3.4 7.1 7.6 7.1 25.1 0 46.7 0 98.1-19 21.9-8.1 53.2-32.3 83.5-64.7 31.7-33.9 45-57.9 45-63.3 0-4.6-2.2-9.1-6.6-13.5-13.2-13.1-42.2-20.9-77.8-20.9z" fill="#212121" p-id="3899"></path></svg>